<svg xmlns="http://www.w3.org/2000/svg" viewBox="0 0 57 57.5" fill="none">
  <path d="M28.5 0.224138C32.556 0.224138 36.4134 1.07291 39.9062 2.60011L32.1699 10.3374C30.9715 11.5358 30.9715 13.4788 32.1699 14.6773C33.3683 15.8757 35.3113 15.8757 36.5098 14.6773L44.4531 6.7339C44.7829 6.40414 45.0177 6.01649 45.166 5.605C46.4089 6.50254 47.5771 7.49684 48.6582 8.57863L34.625 22.6128C33.4267 23.8112 33.4266 25.7543 34.625 26.9527C35.8234 28.1508 37.7665 28.1509 38.9648 26.9527L52.5264 13.3902C53.4935 14.9024 54.3217 16.5118 54.9932 18.2007L52.4238 20.771C51.2254 21.9694 51.2254 23.9124 52.4238 25.1109C53.6222 26.3092 55.5653 26.3093 56.7637 25.1109L56.7715 25.1021C56.9219 26.2882 57 27.4971 57 28.7241C57 44.4643 44.2401 57.2241 28.5 57.2241C12.7599 57.2241 0 44.4643 0 28.7241C0 12.984 12.7599 0.224138 28.5 0.224138ZM49.6396 25.4204C47.945 25.4206 46.5713 26.7941 46.5713 28.4888C46.5713 30.1835 47.945 31.557 49.6396 31.5571C51.3345 31.5571 52.709 30.1836 52.709 28.4888C52.709 26.794 51.3345 25.4204 49.6396 25.4204Z" fill="#E8E580"/>
</svg>
